# xmcd
#
# Track frame offsets: 
#        150
#        10172
#        21370
#        33385
#        46002
#        59977
#        70460
#        79837
#        93465
#        111305
#        127847
#        142085
#        154805
#        165512
#        180280
#        197710
#        207357
#
# Disc length: 3012 seconds
#
# Revision: 3
# Processed by: cddbd v1.5.2PL0 Copyright (c) Steve Scherf et al.
# Submitted via: ExactAudioCopy v0.99pb5
#
DISCID=ec0bc211
DTITLE=Various Artist - The Best of British Blues
DYEAR=1993
DGENRE=Blues
TTITLE0=John Mayall and the Bluesbreakers - I'm your witchdoctor
TTITLE1=Eric Clapton - Snake drive
TTITLE2=Jeff Beck and the All Stars - Steelin'
TTITLE3=Cyril Davies and the All Stars - Someday baby
TTITLE4=T.S. McPhee - Ain't gonna cry no more
TTITLE5=Eric Clapton - West coast idea
TTITLE6=Jimmy Page and the All Stars - L.A. breakdown
TTITLE7=Nikky Hopkins and the All Stars - Piano shuffle
TTITLE8=John Mayall and the BluesBreakers - Telephone blues
TTITLE9=Savoy Brown and the Blues Band - Can't quit you baby
TTITLE10=Jeremy Spencer - Look down at my woman
TTITLE11=Eric Clapton and Jimmy Page - Freight loader
TTITLE12=Jeff Beck and the All Stars - Chuckles
TTITLE13=Rod Stewart - So much to say
TTITLE14=Albert Lee - The next milestone
TTITLE15=Eric Clapton - Tribute to Elmore
TTITLE16=Savoy Brown and the Blues Band - True blue
EXTD=YEAR: 1993 ID3G:   0
EXTT0=
EXTT1=
EXTT2=
EXTT3=
EXTT4=
EXTT5=
EXTT6=
EXTT7=
EXTT8=
EXTT9=
EXTT10=
EXTT11=
EXTT12=
EXTT13=
EXTT14=
EXTT15=
EXTT16=
PLAYORDER=
